<svg width="12" height="12" viewBox="0 0 12 12" fill="none" xmlns="http://www.w3.org/2000/svg">
    <path d="m8.564 1.896.083.137.157.034 1.646.368-.154 1.64-.016.162.11.122 1.106 1.238-1.106 1.238-.11.122.016.163.154 1.64-1.646.367-.157.035-.083.137-.863 1.424-1.555-.656-.147-.061-.145.062-1.557.66-.861-1.424-.083-.137-.157-.035-1.647-.367.155-1.645.016-.163-.11-.122L.502 5.597 1.61 4.354l.11-.123-.016-.162-.155-1.64 1.646-.36.157-.036.084-.137L4.298.47l1.556.656.146.061.146-.061L7.7.47l.863 1.425z" stroke="#2DD443" stroke-width=".75"></path>
    <path d="M7.92 4.543A.342.342 0 0 0 8 4.318a.34.34 0 0 0-.084-.224.272.272 0 0 0-.2-.094.27.27 0 0 0-.2.09L5.427 6.429l-.943-1.057a.27.27 0 0 0-.202-.09.272.272 0 0 0-.2.093A.34.34 0 0 0 4 5.6c0 .084.028.165.08.226l1.144 1.281c.054.06.126.094.202.094a.271.271 0 0 0 .202-.094l2.288-2.563h.004z" fill="#2DD443" stroke="#2DD443" stroke-width=".25"></path>
</svg>