<svg width="77" height="77" viewBox="0 0 77 77" fill="none" xmlns="http://www.w3.org/2000/svg">
    <circle cx="38.5" cy="38.5" r="38.5" fill="#F9F9F9"></circle>
    <path d="M37.55 50.433c.195 0 .396-.044.602-.132.206-.088.373-.195.5-.322l11.69-11.692c.377-.377.668-.761.873-1.154.203-.395.305-.828.305-1.299 0-.477-.102-.94-.305-1.389a4.1 4.1 0 0 0-.873-1.23l-5.623-5.622c-.371-.377-.753-.654-1.145-.83a3.136 3.136 0 0 0-1.301-.264c-.47 0-.908.088-1.312.264a3.526 3.526 0 0 0-1.141.828L38.512 28.9l2.774 2.781c.298.293.52.626.668.999.145.373.218.751.218 1.135 0 .78-.255 1.427-.766 1.938-.51.51-1.156.765-1.936.764-.384 0-.76-.058-1.126-.175a2.436 2.436 0 0 1-.988-.615l-2.869-2.858-6.474 6.473a1.584 1.584 0 0 0-.454 1.102c0 .354.113.646.34.875.226.23.515.345.87.345.195 0 .396-.044.602-.132.206-.09.373-.197.5-.324l4.751-4.752 1.062 1.062-4.744 4.753a1.493 1.493 0 0 0-.342.516 1.612 1.612 0 0 0-.113.585c0 .334.118.62.354.856s.521.354.856.355c.196 0 .397-.044.603-.133a1.6 1.6 0 0 0 .5-.323l5.098-5.089 1.062 1.06-5.091 5.099a1.435 1.435 0 0 0-.327.499 1.559 1.559 0 0 0-.13.603c0 .334.12.618.356.854.236.238.522.357.856.357.196 0 .391-.038.585-.114.194-.076.366-.19.516-.342l5.098-5.09 1.062 1.061-5.098 5.099c-.151.152-.265.334-.34.547a1.752 1.752 0 0 0-.115.583c0 .354.125.64.374.856.249.217.53.326.846.326m-.01 1.5c-.77 0-1.43-.283-1.979-.846-.549-.565-.79-1.262-.723-2.09-.85.01-1.557-.244-2.121-.761-.565-.518-.834-1.24-.806-2.165-.925.01-1.655-.255-2.189-.795s-.777-1.25-.729-2.132c-.833.01-1.531-.225-2.093-.705-.56-.478-.841-1.144-.841-1.998 0-.384.074-.77.223-1.154.15-.386.369-.725.66-1.017l7.545-7.536 3.872 3.871c.127.133.284.243.471.329.187.086.397.128.631.127.321 0 .605-.112.85-.336.246-.224.37-.515.371-.875 0-.234-.043-.444-.129-.63a1.534 1.534 0 0 0-.327-.471l-5.158-5.158c-.372-.377-.758-.654-1.16-.83-.4-.176-.84-.264-1.316-.264-.47 0-.899.088-1.284.264-.383.176-.764.453-1.14.83l-4.565 4.573c-.322.32-.582.703-.78 1.147a3.57 3.57 0 0 0-.315 1.375c-.01.34.02.665.087.977.068.312.178.605.33.881l-1.137 1.137a5.12 5.12 0 0 1-.59-1.389A5.67 5.67 0 0 1 23 34.69a5.256 5.256 0 0 1 .41-1.957 5.165 5.165 0 0 1 1.121-1.666l4.536-4.536c.523-.518 1.076-.903 1.66-1.155A4.745 4.745 0 0 1 32.622 25c.679 0 1.305.126 1.877.378.574.25 1.12.635 1.638 1.153l1.304 1.306 1.308-1.306c.523-.518 1.071-.903 1.645-1.155.574-.25 1.2-.376 1.879-.376s1.31.126 1.894.378c.583.25 1.133.635 1.65 1.153l5.587 5.586a5.633 5.633 0 0 1 1.196 1.74c.281.644.421 1.306.42 1.985 0 .68-.14 1.306-.42 1.878a6.156 6.156 0 0 1-1.197 1.638L39.712 51.039c-.311.312-.65.539-1.017.68-.366.143-.75.214-1.154.214" fill="#E4AD25"></path>
    <path d="M37.55 50.433c.195 0 .396-.044.602-.132.206-.088.373-.195.5-.322l11.69-11.692c.377-.377.668-.761.873-1.154.203-.395.305-.828.305-1.299 0-.477-.102-.94-.305-1.389a4.1 4.1 0 0 0-.873-1.23l-5.623-5.622c-.371-.377-.753-.654-1.145-.83a3.136 3.136 0 0 0-1.301-.264c-.47 0-.908.088-1.312.264a3.526 3.526 0 0 0-1.141.828L38.512 28.9l2.774 2.781c.298.293.52.626.668.999.145.373.218.751.218 1.135 0 .78-.255 1.427-.766 1.938-.51.51-1.156.765-1.936.764-.384 0-.76-.058-1.126-.175a2.436 2.436 0 0 1-.988-.615l-2.869-2.858-6.474 6.473a1.584 1.584 0 0 0-.454 1.102c0 .354.113.646.34.875.226.23.515.345.87.345.195 0 .396-.044.602-.132.206-.09.373-.197.5-.324l4.751-4.752 1.062 1.062-4.744 4.753a1.493 1.493 0 0 0-.342.516 1.612 1.612 0 0 0-.113.585c0 .334.118.62.354.856s.521.354.856.355c.196 0 .397-.044.603-.133a1.6 1.6 0 0 0 .5-.323l5.098-5.089 1.062 1.06-5.091 5.099a1.435 1.435 0 0 0-.327.499 1.559 1.559 0 0 0-.13.603c0 .334.12.618.356.854.236.238.522.357.856.357.196 0 .391-.038.585-.114.194-.076.366-.19.516-.342l5.098-5.09 1.062 1.061-5.098 5.099c-.151.152-.265.334-.34.547a1.752 1.752 0 0 0-.115.583c0 .354.125.64.374.856.249.217.53.326.846.326m-.01 1.5c-.77 0-1.43-.283-1.979-.846-.549-.565-.79-1.262-.723-2.09-.85.01-1.557-.244-2.121-.761-.565-.518-.834-1.24-.806-2.165-.925.01-1.655-.255-2.189-.795s-.777-1.25-.729-2.132c-.833.01-1.531-.225-2.093-.705-.56-.478-.841-1.144-.841-1.998 0-.384.074-.77.223-1.154.15-.386.369-.725.66-1.017l7.545-7.536 3.872 3.871c.127.133.284.243.471.329.187.086.397.128.631.127.321 0 .605-.112.85-.336.246-.224.37-.515.371-.875 0-.234-.043-.444-.129-.63a1.534 1.534 0 0 0-.327-.471l-5.158-5.158c-.372-.377-.758-.654-1.16-.83-.4-.176-.84-.264-1.316-.264-.47 0-.899.088-1.284.264-.383.176-.764.453-1.14.83l-4.565 4.573c-.322.32-.582.703-.78 1.147a3.57 3.57 0 0 0-.315 1.375c-.01.34.02.665.087.977.068.312.178.605.33.881l-1.137 1.137a5.12 5.12 0 0 1-.59-1.389A5.67 5.67 0 0 1 23 34.69a5.256 5.256 0 0 1 .41-1.957 5.165 5.165 0 0 1 1.121-1.666l4.536-4.536c.523-.518 1.076-.903 1.66-1.155A4.745 4.745 0 0 1 32.622 25c.679 0 1.305.126 1.877.378.574.25 1.12.635 1.638 1.153l1.304 1.306 1.308-1.306c.523-.518 1.071-.903 1.645-1.155.574-.25 1.2-.376 1.879-.376s1.31.126 1.894.378c.583.25 1.133.635 1.65 1.153l5.587 5.586a5.633 5.633 0 0 1 1.196 1.74c.281.644.421 1.306.42 1.985 0 .68-.14 1.306-.42 1.878a6.156 6.156 0 0 1-1.197 1.638L39.712 51.039c-.311.312-.65.539-1.017.68-.366.143-.75.214-1.154.214" stroke="#E4AD25" stroke-width=".3"></path>
</svg>