<?xml version="1.0"?>


<svg version="1.1" id="Layer_1" xmlns="http://www.w3.org/2000/svg" xmlns:xlink="http://www.w3.org/1999/xlink" x="0px" y="0px" width="77px" height="77px" viewBox="0 0 77 77" enable-background="new 0 0 77 77" xml:space="preserve">
<circle fill="#E4AD25" cx="38.5" cy="38.5" r="38.5"></circle>
<path fill="#F9F9F9" d="M37.55,50.434c0.195,0,0.396-0.045,0.602-0.133s0.373-0.195,0.5-0.322l11.69-11.691&#xA;&#x9;c0.377-0.377,0.668-0.761,0.873-1.154c0.203-0.395,0.305-0.828,0.305-1.299c0-0.477-0.102-0.94-0.305-1.389&#xA;&#x9;c-0.213-0.46-0.508-0.877-0.873-1.23l-5.623-5.622c-0.371-0.377-0.753-0.654-1.145-0.83c-0.41-0.18-0.854-0.27-1.301-0.264&#xA;&#x9;c-0.471,0-0.908,0.088-1.313,0.264c-0.432,0.196-0.82,0.478-1.141,0.828L38.512,28.9l2.774,2.781&#xA;&#x9;c0.298,0.293,0.521,0.626,0.668,0.999c0.146,0.373,0.218,0.751,0.218,1.135c0,0.78-0.255,1.427-0.766,1.938&#xA;&#x9;c-0.51,0.51-1.156,0.765-1.936,0.764c-0.385,0-0.761-0.058-1.127-0.175c-0.374-0.122-0.713-0.333-0.988-0.615l-2.869-2.858&#xA;&#x9;l-6.474,6.473c-0.289,0.295-0.452,0.689-0.454,1.102c0,0.354,0.113,0.646,0.34,0.875c0.226,0.23,0.515,0.346,0.87,0.346&#xA;&#x9;c0.195,0,0.396-0.044,0.602-0.132c0.206-0.091,0.373-0.197,0.5-0.324l4.751-4.752l1.062,1.062l-4.744,4.753&#xA;&#x9;c-0.149,0.146-0.265,0.321-0.342,0.516c-0.074,0.186-0.112,0.385-0.113,0.585c0,0.334,0.118,0.62,0.354,0.856&#xA;&#x9;c0.236,0.235,0.521,0.354,0.856,0.354c0.196,0,0.397-0.044,0.603-0.133c0.186-0.075,0.355-0.185,0.5-0.323l5.098-5.089l1.062,1.06&#xA;&#x9;l-5.091,5.1c-0.143,0.141-0.254,0.312-0.327,0.498c-0.083,0.191-0.127,0.396-0.13,0.604c0,0.334,0.12,0.618,0.356,0.854&#xA;&#x9;c0.236,0.238,0.522,0.357,0.856,0.357c0.196,0,0.391-0.037,0.585-0.113s0.366-0.19,0.516-0.342l5.097-5.091l1.063,1.062&#xA;&#x9;l-5.098,5.099c-0.151,0.151-0.265,0.334-0.34,0.547c-0.071,0.187-0.11,0.384-0.115,0.583c0,0.354,0.125,0.641,0.374,0.855&#xA;&#x9;c0.249,0.218,0.53,0.326,0.846,0.326 M37.54,51.936c-0.77,0-1.43-0.283-1.979-0.846c-0.549-0.564-0.79-1.262-0.723-2.09&#xA;&#x9;c-0.85,0.01-1.557-0.244-2.121-0.762c-0.565-0.518-0.834-1.239-0.806-2.164c-0.925,0.01-1.655-0.256-2.189-0.795&#xA;&#x9;c-0.534-0.541-0.777-1.25-0.729-2.133c-0.833,0.011-1.531-0.225-2.093-0.705c-0.56-0.478-0.841-1.144-0.841-1.998&#xA;&#x9;c0-0.383,0.074-0.77,0.223-1.153c0.15-0.386,0.369-0.725,0.66-1.017l7.545-7.536l3.872,3.871c0.127,0.133,0.284,0.243,0.471,0.329&#xA;&#x9;c0.188,0.086,0.396,0.128,0.631,0.127c0.321,0,0.605-0.112,0.85-0.336c0.246-0.224,0.371-0.515,0.371-0.875&#xA;&#x9;c0-0.234-0.043-0.444-0.129-0.63c-0.078-0.176-0.189-0.336-0.326-0.471l-5.159-5.158c-0.372-0.377-0.758-0.654-1.16-0.83&#xA;&#x9;c-0.4-0.176-0.84-0.264-1.316-0.264c-0.47,0-0.899,0.088-1.284,0.264c-0.383,0.176-0.764,0.453-1.14,0.83l-4.565,4.573&#xA;&#x9;c-0.322,0.32-0.582,0.703-0.78,1.147c-0.196,0.433-0.303,0.9-0.315,1.375c-0.01,0.34,0.02,0.665,0.087,0.977&#xA;&#x9;c0.068,0.312,0.178,0.605,0.33,0.881l-1.137,1.137c-0.264-0.431-0.463-0.899-0.59-1.389c-0.143-0.523-0.209-1.063-0.198-1.605&#xA;&#x9;c0.01-0.672,0.149-1.337,0.41-1.957c0.261-0.623,0.642-1.189,1.121-1.666l4.536-4.536c0.523-0.518,1.076-0.903,1.66-1.155&#xA;&#x9;c0.599-0.254,1.244-0.382,1.895-0.376c0.679,0,1.305,0.126,1.877,0.378c0.574,0.25,1.12,0.635,1.638,1.153l1.304,1.306l1.308-1.306&#xA;&#x9;c0.522-0.518,1.071-0.903,1.646-1.155C40.968,25.126,41.594,25,42.273,25c0.679,0,1.31,0.126,1.894,0.378&#xA;&#x9;c0.583,0.25,1.133,0.635,1.649,1.153l5.588,5.586c0.504,0.499,0.91,1.09,1.195,1.74c0.281,0.644,0.422,1.306,0.42,1.985&#xA;&#x9;c0,0.68-0.14,1.306-0.42,1.878c-0.305,0.608-0.71,1.162-1.197,1.637l-11.69,11.682c-0.312,0.313-0.649,0.539-1.017,0.68&#xA;&#x9;c-0.366,0.143-0.75,0.215-1.154,0.215"></path>
<path fill="none" stroke="#E4AD25" stroke-width="0.3" d="M37.55,50.434c0.195,0,0.396-0.045,0.602-0.133s0.373-0.195,0.5-0.322&#xA;&#x9;l11.69-11.691c0.377-0.377,0.668-0.761,0.873-1.154c0.203-0.395,0.305-0.828,0.305-1.299c0-0.477-0.102-0.94-0.305-1.389&#xA;&#x9;c-0.213-0.46-0.508-0.877-0.873-1.23l-5.623-5.622c-0.371-0.377-0.753-0.654-1.145-0.83c-0.41-0.18-0.854-0.27-1.301-0.264&#xA;&#x9;c-0.471,0-0.908,0.088-1.313,0.264c-0.432,0.196-0.82,0.478-1.141,0.828L38.512,28.9l2.774,2.781&#xA;&#x9;c0.298,0.293,0.521,0.626,0.668,0.999c0.146,0.373,0.218,0.751,0.218,1.135c0,0.78-0.255,1.427-0.766,1.938&#xA;&#x9;c-0.51,0.51-1.156,0.765-1.936,0.764c-0.385,0-0.761-0.058-1.127-0.175c-0.374-0.122-0.713-0.333-0.988-0.615l-2.869-2.858&#xA;&#x9;l-6.474,6.473c-0.289,0.295-0.452,0.689-0.454,1.102c0,0.354,0.113,0.646,0.34,0.875c0.226,0.23,0.515,0.346,0.87,0.346&#xA;&#x9;c0.195,0,0.396-0.044,0.602-0.132c0.206-0.091,0.373-0.197,0.5-0.324l4.751-4.752l1.062,1.062l-4.744,4.753&#xA;&#x9;c-0.149,0.146-0.265,0.321-0.342,0.516c-0.074,0.186-0.112,0.385-0.113,0.585c0,0.334,0.118,0.62,0.354,0.856&#xA;&#x9;c0.236,0.235,0.521,0.354,0.856,0.354c0.196,0,0.397-0.044,0.603-0.133c0.186-0.075,0.355-0.185,0.5-0.323l5.098-5.089l1.062,1.06&#xA;&#x9;l-5.091,5.1c-0.143,0.141-0.254,0.312-0.327,0.498c-0.083,0.191-0.127,0.396-0.13,0.604c0,0.334,0.12,0.618,0.356,0.854&#xA;&#x9;c0.236,0.238,0.522,0.357,0.856,0.357c0.196,0,0.391-0.037,0.585-0.113s0.366-0.19,0.516-0.342l5.097-5.091l1.063,1.062&#xA;&#x9;l-5.098,5.099c-0.151,0.151-0.265,0.334-0.34,0.547c-0.071,0.187-0.11,0.384-0.115,0.583c0,0.354,0.125,0.641,0.374,0.855&#xA;&#x9;c0.249,0.218,0.53,0.326,0.846,0.326 M37.54,51.936c-0.77,0-1.43-0.283-1.979-0.846c-0.549-0.564-0.79-1.262-0.723-2.09&#xA;&#x9;c-0.85,0.01-1.557-0.244-2.121-0.762c-0.565-0.518-0.834-1.239-0.806-2.164c-0.925,0.01-1.655-0.256-2.189-0.795&#xA;&#x9;c-0.534-0.541-0.777-1.25-0.729-2.133c-0.833,0.011-1.531-0.225-2.093-0.705c-0.56-0.478-0.841-1.144-0.841-1.998&#xA;&#x9;c0-0.383,0.074-0.77,0.223-1.153c0.15-0.386,0.369-0.725,0.66-1.017l7.545-7.536l3.872,3.871c0.127,0.133,0.284,0.243,0.471,0.329&#xA;&#x9;c0.188,0.086,0.396,0.128,0.631,0.127c0.321,0,0.605-0.112,0.85-0.336c0.246-0.224,0.371-0.515,0.371-0.875&#xA;&#x9;c0-0.234-0.043-0.444-0.129-0.63c-0.078-0.176-0.189-0.336-0.326-0.471l-5.159-5.158c-0.372-0.377-0.758-0.654-1.16-0.83&#xA;&#x9;c-0.4-0.176-0.84-0.264-1.316-0.264c-0.47,0-0.899,0.088-1.284,0.264c-0.383,0.176-0.764,0.453-1.14,0.83l-4.565,4.573&#xA;&#x9;c-0.322,0.32-0.582,0.703-0.78,1.147c-0.196,0.433-0.303,0.9-0.315,1.375c-0.01,0.34,0.02,0.665,0.087,0.977&#xA;&#x9;c0.068,0.312,0.178,0.605,0.33,0.881l-1.137,1.137c-0.264-0.431-0.463-0.899-0.59-1.389c-0.143-0.523-0.209-1.063-0.198-1.605&#xA;&#x9;c0.01-0.672,0.149-1.337,0.41-1.957c0.261-0.623,0.642-1.189,1.121-1.666l4.536-4.536c0.523-0.518,1.076-0.903,1.66-1.155&#xA;&#x9;c0.599-0.254,1.244-0.382,1.895-0.376c0.679,0,1.305,0.126,1.877,0.378c0.574,0.25,1.12,0.635,1.638,1.153l1.304,1.306l1.308-1.306&#xA;&#x9;c0.522-0.518,1.071-0.903,1.646-1.155C40.968,25.126,41.594,25,42.273,25c0.679,0,1.31,0.126,1.894,0.378&#xA;&#x9;c0.583,0.25,1.133,0.635,1.649,1.153l5.588,5.586c0.504,0.499,0.91,1.09,1.195,1.74c0.281,0.644,0.422,1.306,0.42,1.985&#xA;&#x9;c0,0.68-0.14,1.306-0.42,1.878c-0.305,0.608-0.71,1.162-1.197,1.637l-11.69,11.682c-0.312,0.313-0.649,0.539-1.017,0.68&#xA;&#x9;c-0.366,0.143-0.75,0.215-1.154,0.215"></path>
</svg>