<svg width="77" height="77" viewBox="0 0 77 77" fill="none" xmlns="http://www.w3.org/2000/svg">
    <circle cx="38.5" cy="38.5" r="38.5" fill="#F9F9F9"></circle>
    <path d="M43.5 26.125a1.125 1.125 0 0 1 1.125 1.125v1.375h2.625a3.625 3.625 0 0 1 3.625 3.625v15a3.625 3.625 0 0 1-3.625 3.625h-17.5a3.625 3.625 0 0 1-3.625-3.625v-15a3.625 3.625 0 0 1 3.625-3.625h2.625V27.25a1.125 1.125 0 1 1 2.25 0v1.375h7.75V27.25a1.125 1.125 0 0 1 1.125-1.125zM28.375 47.25a1.376 1.376 0 0 0 1.375 1.375h17.5a1.376 1.376 0 0 0 1.375-1.375v-8.875h-20.25v8.875zm1.375-16.375a1.376 1.376 0 0 0-1.375 1.375v3.875h20.25V32.25a1.376 1.376 0 0 0-1.375-1.375h-2.625v1.375a1.125 1.125 0 1 1-2.25 0v-1.375h-7.75v1.375a1.125 1.125 0 1 1-2.25 0v-1.375H29.75z" fill="#E4AD25" stroke="#FFFBF4" stroke-width=".25"></path>
</svg>