<?xml version="1.0"?>


<svg version="1.1" id="Layer_1" xmlns="http://www.w3.org/2000/svg" xmlns:xlink="http://www.w3.org/1999/xlink" x="0px" y="0px" width="77px" height="77px" viewBox="0 0 77 77" enable-background="new 0 0 77 77" xml:space="preserve">
<circle fill="#E4AD25" cx="38.5" cy="38.5" r="38.5"></circle>
<path fill="#F9F9F9" d="M48,40.563c2.65,0.001,4.799,2.15,4.8,4.801V48.8h-2.327v-3.437c-0.001-1.365-1.107-2.472-2.473-2.473&#xA;&#x9;h-4.346v-2.328H48z M28,40.563h7.273c2.65,0.002,4.799,2.15,4.8,4.801V48.8h-2.328v-3.437c-0.001-1.365-1.107-2.471-2.472-2.473H28&#xA;&#x9;c-1.365,0.001-2.472,1.107-2.473,2.473V48.8H23.2v-3.437C23.2,42.712,25.349,40.563,28,40.563z M31.637,29.2&#xA;&#x9;c2.4-0.037,4.375,1.879,4.411,4.279c0.037,2.4-1.879,4.375-4.279,4.412c-0.044,0-0.088,0-0.132,0&#xA;&#x9;c-2.4-0.052-4.303-2.039-4.252-4.438C27.435,31.125,29.31,29.251,31.637,29.2L31.637,29.2z M44.363,29.2&#xA;&#x9;c2.4,0,4.346,1.945,4.346,4.345c0.001,2.4-1.945,4.346-4.346,4.347c-2.399,0-4.346-1.946-4.346-4.346&#xA;&#x9;C40.018,31.146,41.964,29.2,44.363,29.2L44.363,29.2z M31.637,31.527c-1.116,0.001-2.019,0.907-2.018,2.023&#xA;&#x9;c0.001,0.534,0.212,1.045,0.589,1.423c0.791,0.787,2.07,0.784,2.857-0.007c0.375-0.377,0.587-0.888,0.588-1.42&#xA;&#x9;C33.654,32.432,32.751,31.528,31.637,31.527z M44.363,31.527c-1.115,0-2.019,0.904-2.019,2.019s0.903,2.019,2.019,2.019&#xA;&#x9;c1.114,0,2.018-0.904,2.018-2.019S45.478,31.527,44.363,31.527z"></path>
</svg>