<?xml version="1.0"?>


<svg version="1.1" id="Layer_1" xmlns="http://www.w3.org/2000/svg" xmlns:xlink="http://www.w3.org/1999/xlink" x="0px" y="0px" width="118px" height="118px" viewBox="0 0 118 118" enable-background="new 0 0 118 118" xml:space="preserve">
<circle fill="#E4AD25" cx="59" cy="59" r="59"></circle>
<path fill="#FFFFFF" d="M57.916,35h0.268c4.466,0,8.001,0,10.767,0.416c2.855,0.43,5.123,1.335,6.887,3.311&#xA;&#x9;c1.742,1.95,2.521,4.417,2.893,7.528c0.369,3.061,0.369,6.988,0.369,12.02v0.227c0,5.032,0,8.96-0.367,12.02&#xA;&#x9;c-0.373,3.112-1.152,5.58-2.893,7.529c-1.766,1.975-4.029,2.881-6.89,3.311c-2.765,0.416-6.3,0.416-10.764,0.416h-0.272&#xA;&#x9;c-4.465,0-7.999,0-10.765-0.416c-2.858-0.43-5.123-1.336-6.887-3.311c-1.742-1.949-2.522-4.417-2.893-7.527&#xA;&#x9;C37,67.462,37,63.534,37,58.502v-0.226c0-5.033,0-8.96,0.367-12.019c0.373-3.115,1.153-5.58,2.893-7.53&#xA;&#x9;c1.766-1.976,4.03-2.88,6.89-3.311C49.914,35,53.45,35,57.916,35L57.916,35z M47.63,38.644c-2.433,0.366-3.88,1.056-4.962,2.265&#xA;&#x9;c-1.1,1.236-1.748,2.929-2.085,5.74c-0.341,2.841-0.343,6.57-0.343,11.74c0,5.169,0.002,8.898,0.345,11.74&#xA;&#x9;c0.337,2.811,0.98,4.504,2.083,5.74c1.082,1.21,2.529,1.898,4.962,2.264c2.498,0.377,5.79,0.381,10.421,0.381&#xA;&#x9;s7.924-0.004,10.422-0.38c2.432-0.366,3.879-1.056,4.959-2.266c1.105-1.235,1.748-2.929,2.088-5.739&#xA;&#x9;c0.34-2.842,0.344-6.57,0.344-11.74c0-5.17-0.004-8.899-0.346-11.74c-0.338-2.811-0.98-4.504-2.084-5.74&#xA;&#x9;c-1.082-1.21-2.529-1.9-4.961-2.265c-2.498-0.376-5.791-0.38-10.422-0.38S50.128,38.268,47.63,38.644z M51.393,43.703h13.316&#xA;&#x9;c0.82,0,1.533,0,2.154,0.167c0.825,0.223,1.576,0.66,2.178,1.267c0.604,0.608,1.037,1.364,1.258,2.193&#xA;&#x9;c0.168,0.63,0.168,1.344,0.166,2.175v0.364c0,0.827,0,1.545-0.166,2.171c-0.22,0.829-0.653,1.585-1.257,2.194&#xA;&#x9;c-0.601,0.607-1.352,1.044-2.176,1.268c-0.626,0.17-1.334,0.17-2.159,0.167H51.394c-0.82,0-1.533,0-2.155-0.167&#xA;&#x9;c-0.824-0.223-1.575-0.66-2.177-1.266c-0.604-0.608-1.038-1.365-1.258-2.194c-0.168-0.63-0.166-1.344-0.166-2.175v-0.364&#xA;&#x9;c0-0.827,0-1.544,0.166-2.171c0.22-0.83,0.654-1.587,1.257-2.194c0.601-0.607,1.352-1.044,2.176-1.268&#xA;&#x9;c0.626-0.17,1.334-0.167,2.159-0.167 M51.573,46.966c-1.108,0-1.345,0.014-1.498,0.057c-0.562,0.151-0.999,0.591-1.145,1.153&#xA;&#x9;c-0.043,0.155-0.056,0.392-0.056,1.51c0,1.116,0.013,1.355,0.056,1.51c0.074,0.276,0.219,0.529,0.42,0.73&#xA;&#x9;c0.2,0.203,0.45,0.349,0.725,0.423c0.153,0.044,0.388,0.057,1.498,0.057h12.954c1.107,0,1.345-0.013,1.498-0.057&#xA;&#x9;c0.561-0.151,0.997-0.591,1.144-1.153c0.044-0.154,0.058-0.392,0.058-1.51c0-1.116-0.014-1.355-0.057-1.51&#xA;&#x9;c-0.15-0.56-0.586-0.999-1.145-1.153c-0.153-0.044-0.389-0.057-1.498-0.057H51.573z"></path>
<defs>
&#x9;<filter id="Adobe_OpacityMaskFilter" filterUnits="userSpaceOnUse" x="36.75" y="34.75" width="42.6" height="47.277">
&#x9;&#x9;<feColorMatrix type="matrix" values="1 0 0 0 0  0 1 0 0 0  0 0 1 0 0  0 0 0 1 0"></feColorMatrix>
&#x9;</filter>
</defs>
<mask maskUnits="userSpaceOnUse" x="36.75" y="34.75" width="42.6" height="47.277" id="eg1bqzubfa">
&#x9;<path fill="#FFFFFF" filter="url(#Adobe_OpacityMaskFilter)" d="M57.916,35h0.268c4.466,0,8.001,0,10.767,0.416&#xA;&#x9;&#x9;c2.855,0.43,5.123,1.335,6.887,3.311c1.742,1.95,2.521,4.417,2.893,7.528c0.369,3.061,0.369,6.988,0.369,12.02v0.227&#xA;&#x9;&#x9;c0,5.032,0,8.96-0.367,12.02c-0.373,3.112-1.152,5.58-2.893,7.529c-1.766,1.975-4.029,2.881-6.89,3.311&#xA;&#x9;&#x9;c-2.765,0.416-6.3,0.416-10.764,0.416h-0.272c-4.465,0-7.999,0-10.765-0.416c-2.858-0.43-5.123-1.336-6.887-3.311&#xA;&#x9;&#x9;c-1.742-1.949-2.522-4.417-2.893-7.527C37,67.462,37,63.534,37,58.502v-0.226c0-5.033,0-8.96,0.367-12.019&#xA;&#x9;&#x9;c0.373-3.115,1.153-5.58,2.893-7.53c1.766-1.976,4.03-2.88,6.89-3.311C49.914,35,53.45,35,57.916,35L57.916,35z M47.63,38.644&#xA;&#x9;&#x9;c-2.433,0.366-3.88,1.056-4.962,2.265c-1.1,1.236-1.748,2.929-2.085,5.74c-0.341,2.841-0.343,6.57-0.343,11.74&#xA;&#x9;&#x9;c0,5.169,0.002,8.898,0.345,11.74c0.337,2.811,0.98,4.504,2.083,5.74c1.082,1.21,2.529,1.898,4.962,2.264&#xA;&#x9;&#x9;c2.498,0.377,5.79,0.381,10.421,0.381s7.924-0.004,10.422-0.38c2.432-0.366,3.879-1.056,4.959-2.266&#xA;&#x9;&#x9;c1.105-1.235,1.748-2.929,2.088-5.739c0.34-2.842,0.344-6.57,0.344-11.74c0-5.17-0.004-8.899-0.346-11.74&#xA;&#x9;&#x9;c-0.338-2.811-0.98-4.504-2.084-5.74c-1.082-1.21-2.529-1.9-4.961-2.265c-2.498-0.376-5.791-0.38-10.422-0.38&#xA;&#x9;&#x9;S50.128,38.268,47.63,38.644z M51.393,43.703h13.316c0.82,0,1.533,0,2.154,0.167c0.825,0.223,1.576,0.66,2.178,1.267&#xA;&#x9;&#x9;c0.604,0.608,1.037,1.364,1.258,2.193c0.168,0.63,0.168,1.344,0.166,2.175v0.364c0,0.827,0,1.545-0.166,2.171&#xA;&#x9;&#x9;c-0.22,0.829-0.653,1.585-1.257,2.194c-0.601,0.607-1.352,1.044-2.176,1.268c-0.626,0.17-1.334,0.17-2.159,0.167H51.394&#xA;&#x9;&#x9;c-0.82,0-1.533,0-2.155-0.167c-0.824-0.223-1.575-0.66-2.177-1.266c-0.604-0.608-1.038-1.365-1.258-2.194&#xA;&#x9;&#x9;c-0.168-0.63-0.166-1.344-0.166-2.175v-0.364c0-0.827,0-1.544,0.166-2.171c0.22-0.83,0.654-1.587,1.257-2.194&#xA;&#x9;&#x9;c0.601-0.607,1.352-1.044,2.176-1.268c0.626-0.17,1.334-0.167,2.159-0.167 M51.573,46.966c-1.108,0-1.345,0.014-1.498,0.057&#xA;&#x9;&#x9;c-0.562,0.151-0.999,0.591-1.145,1.153c-0.043,0.155-0.056,0.392-0.056,1.51c0,1.116,0.013,1.355,0.056,1.51&#xA;&#x9;&#x9;c0.074,0.276,0.219,0.529,0.42,0.73c0.2,0.203,0.45,0.349,0.725,0.423c0.153,0.044,0.388,0.057,1.498,0.057h12.954&#xA;&#x9;&#x9;c1.107,0,1.345-0.013,1.498-0.057c0.561-0.151,0.997-0.591,1.144-1.153c0.044-0.154,0.058-0.392,0.058-1.51&#xA;&#x9;&#x9;c0-1.116-0.014-1.355-0.057-1.51c-0.15-0.56-0.586-0.999-1.145-1.153c-0.153-0.044-0.389-0.057-1.498-0.057H51.573z"></path>
</mask>
<path mask="url(#eg1bqzubfa)" fill="#F9F9F9" d="M68.95,35.416l0.038-0.248L68.95,35.416L68.95,35.416z M75.838,38.727l-0.188,0.167&#xA;&#x9;L75.838,38.727z M78.73,46.255l-0.248,0.03L78.73,46.255z M78.732,70.523l0.248,0.029L78.732,70.523z M75.84,78.05l0.186,0.166&#xA;&#x9;L75.84,78.05z M68.95,81.361l0.038,0.246L68.95,81.361L68.95,81.361z M47.15,81.361l-0.038,0.246L47.15,81.361L47.15,81.361z&#xA;&#x9; M40.262,78.05l0.187-0.167L40.262,78.05z M37.369,70.521l0.248-0.029L37.369,70.521z M37.367,46.256l0.248,0.03L37.367,46.256z&#xA;&#x9; M40.26,38.726l-0.186-0.167L40.26,38.726z M47.15,35.415l-0.038-0.248L47.15,35.415L47.15,35.415z M47.629,38.643l0.037,0.248&#xA;&#x9;L47.629,38.643z M42.667,40.908l-0.186-0.166L42.667,40.908z M40.582,46.648l0.248,0.03L40.582,46.648z M40.584,70.128l0.248-0.03&#xA;&#x9;L40.584,70.128z M42.667,75.868l-0.186,0.166L42.667,75.868z M47.629,78.132l0.037-0.247L47.629,78.132L47.629,78.132z&#xA;&#x9; M68.471,78.132l-0.037-0.247L68.471,78.132L68.471,78.132z M73.432,75.868l-0.188-0.167l0.186,0.166L73.432,75.868z M75.518,70.128&#xA;&#x9;l0.248,0.03L75.518,70.128z M75.516,46.648l-0.248,0.03L75.516,46.648z M73.434,40.908l0.186-0.166L73.434,40.908z M68.471,38.643&#xA;&#x9;l-0.037,0.248L68.471,38.643z M66.863,43.869l0.064-0.241L66.863,43.869z M70.298,47.329l-0.241,0.064L70.298,47.329z&#xA;&#x9; M70.464,49.504h-0.25H70.464z M70.298,52.039l0.242,0.064L70.298,52.039z M66.865,55.501L66.8,55.259L66.865,55.501z&#xA;&#x9; M64.706,55.668v-0.25V55.668z M49.239,55.501l-0.065,0.241L49.239,55.501z M45.804,52.041l0.242-0.064L45.804,52.041z&#xA;&#x9; M45.804,47.331l-0.241-0.064L45.804,47.331z M49.237,43.869l0.065,0.242L49.237,43.869z M50.075,47.022l0.065,0.241h0.003&#xA;&#x9;L50.075,47.022L50.075,47.022z M48.93,48.175l0.241,0.067l0.001-0.003L48.93,48.175L48.93,48.175z M48.93,51.195l0.242-0.064v-0.003&#xA;&#x9;L48.93,51.195L48.93,51.195z M50.075,52.348l0.068-0.24l-0.003-0.001L50.075,52.348z M66.025,52.348l-0.065-0.241h-0.003&#xA;&#x9;L66.025,52.348z M67.169,51.195l-0.239-0.067l-0.002,0.003L67.169,51.195L67.169,51.195z M67.169,48.175l-0.241,0.064v0.003&#xA;&#x9;L67.169,48.175L67.169,48.175z M66.025,47.022l-0.068,0.24l0.003,0.001L66.025,47.022z M57.916,35v0.25h0.268v-0.5h-0.268V35z&#xA;&#x9; M58.184,35v0.25c4.474,0,7.987,0,10.73,0.413l0.037-0.247l0.037-0.248c-2.789-0.419-6.346-0.418-10.804-0.418V35z M68.951,35.416&#xA;&#x9;l-0.038,0.247c2.823,0.426,5.026,1.314,6.737,3.23l0.188-0.166l0.186-0.166c-1.815-2.035-4.146-2.957-7.035-3.393L68.951,35.416&#xA;&#x9;L68.951,35.416z M75.838,38.727l-0.188,0.167c1.695,1.894,2.464,4.302,2.832,7.39l0.248-0.03l0.248-0.029&#xA;&#x9;c-0.373-3.134-1.162-5.66-2.955-7.665L75.838,38.727z M78.73,46.255l-0.248,0.03c0.367,3.043,0.367,6.952,0.367,11.99h0.5&#xA;&#x9;c0-5.026,0-8.97-0.371-12.05L78.73,46.255L78.73,46.255z M79.1,58.275h-0.25v0.227h0.5v-0.226L79.1,58.275L79.1,58.275z&#xA;&#x9; M79.1,58.502h-0.25c0,5.038,0,8.948-0.365,11.991l0.248,0.03l0.248,0.029c0.371-3.08,0.369-7.025,0.369-12.051H79.1z&#xA;&#x9; M78.732,70.521l-0.248-0.028c-0.37,3.088-1.139,5.497-2.832,7.391l0.188,0.167l0.186,0.166c1.791-2.004,2.58-4.529,2.955-7.664&#xA;&#x9;l-0.248-0.029V70.521z M75.84,78.051l-0.186-0.167c-1.715,1.917-3.915,2.806-6.74,3.231l0.037,0.246l0.037,0.248&#xA;&#x9;c2.892-0.436,5.22-1.357,7.037-3.393L75.84,78.051L75.84,78.051z M68.95,81.361l-0.037-0.246c-2.742,0.412-6.255,0.412-10.727,0.412&#xA;&#x9;v0.5c4.457,0,8.013,0,10.802-0.418L68.95,81.361L68.95,81.361z M58.186,81.777v-0.25h-0.272v0.5h0.272V81.777z M57.914,81.777v-0.25&#xA;&#x9;c-4.472,0-7.985,0-10.727-0.412l-0.038,0.246l-0.037,0.248c2.789,0.42,6.345,0.418,10.802,0.418V81.777z M47.149,81.361l0.038-0.246&#xA;&#x9;c-2.826-0.426-5.027-1.314-6.738-3.23l-0.187,0.166l-0.186,0.166c1.816,2.035,4.144,2.957,7.036,3.393L47.149,81.361z&#xA;&#x9; M40.262,78.051l0.187-0.167c-1.694-1.894-2.463-4.303-2.832-7.39l-0.248,0.029l-0.248,0.029c0.374,3.135,1.163,5.66,2.955,7.664&#xA;&#x9;L40.262,78.051z M37.369,70.523l0.248-0.03c-0.367-3.043-0.367-6.952-0.367-11.991h-0.5c0,5.025,0,8.971,0.371,12.05l0.248-0.03&#xA;&#x9;V70.523z M37,58.502h0.25v-0.226h-0.5v0.226H37z M37,58.276h0.25c0-5.039,0-8.948,0.365-11.99l-0.248-0.029l-0.248-0.03&#xA;&#x9;c-0.37,3.078-0.369,7.022-0.369,12.049H37z M37.367,46.257l0.248,0.03c0.371-3.093,1.14-5.499,2.832-7.393l-0.187-0.167&#xA;&#x9;l-0.186-0.166c-1.79,2.004-2.579,4.528-2.955,7.666L37.367,46.257z M40.26,38.727l0.186,0.167c1.714-1.917,3.915-2.805,6.74-3.231&#xA;&#x9;l-0.037-0.247l-0.037-0.248c-2.892,0.436-5.22,1.358-7.038,3.392L40.26,38.727z M47.15,35.416l0.037,0.247&#xA;&#x9;c2.742-0.412,6.255-0.413,10.73-0.413v-0.5c-4.46,0-8.016,0-10.805,0.418L47.15,35.416L47.15,35.416z M47.629,38.644l-0.037-0.247&#xA;&#x9;c-2.467,0.37-3.977,1.077-5.111,2.346l0.186,0.166l0.187,0.167c1.029-1.151,2.412-1.824,4.812-2.184L47.629,38.644z M42.667,40.909&#xA;&#x9;l-0.186-0.166c-1.15,1.29-1.808,3.042-2.148,5.876l0.249,0.03l0.248,0.03c0.334-2.788,0.971-4.422,2.024-5.604L42.667,40.909z&#xA;&#x9; M40.582,46.649l-0.248-0.03c-0.344,2.86-0.346,6.607-0.346,11.77h0.5c0-5.176,0.003-8.887,0.342-11.71L40.582,46.649z&#xA;&#x9; M40.239,58.389h-0.25c0,5.163,0.001,8.91,0.347,11.77l0.248-0.03l0.248-0.029c-0.34-2.824-0.343-6.535-0.343-11.71H40.239&#xA;&#x9;L40.239,58.389z M40.584,70.129l-0.248,0.03c0.34,2.834,0.993,4.585,2.145,5.876l0.186-0.166l0.187-0.167&#xA;&#x9;c-1.054-1.181-1.688-2.815-2.022-5.603L40.584,70.129z M42.667,75.869l-0.186,0.166c1.134,1.27,2.644,1.975,5.11,2.346l0.038-0.248&#xA;&#x9;l0.037-0.247c-2.4-0.36-3.783-1.032-4.812-2.184L42.667,75.869L42.667,75.869z M47.629,78.133l-0.038,0.248&#xA;&#x9;c2.521,0.38,5.836,0.383,10.459,0.383v-0.5c-4.639,0-7.91-0.005-10.384-0.378L47.629,78.133L47.629,78.133z M58.05,78.514v0.25&#xA;&#x9;c4.623,0,7.938-0.004,10.459-0.383l-0.038-0.248l-0.037-0.247c-2.475,0.373-5.744,0.378-10.384,0.378V78.514z M68.471,78.134&#xA;&#x9;l0.037,0.247c2.467-0.37,3.977-1.078,5.11-2.346l-0.188-0.166l-0.186-0.167c-1.027,1.151-2.41,1.823-4.811,2.184L68.471,78.134z&#xA;&#x9; M73.432,75.868l0.186,0.167c1.154-1.29,1.808-3.042,2.15-5.876l-0.25-0.03L75.27,70.1c-0.336,2.787-0.97,4.422-2.025,5.603&#xA;&#x9;l0.186,0.166H73.432z M75.518,70.129l0.248,0.03c0.344-2.86,0.346-6.607,0.346-11.77h-0.5c0,5.175-0.002,8.886-0.342,11.71&#xA;&#x9;L75.518,70.129z M75.861,58.389h0.25c0-5.163-0.002-8.91-0.348-11.77l-0.248,0.03l-0.248,0.03c0.34,2.823,0.344,6.534,0.344,11.71&#xA;&#x9;H75.861z M75.516,46.649l0.248-0.03c-0.34-2.834-0.992-4.586-2.145-5.876l-0.186,0.166l-0.188,0.167&#xA;&#x9;c1.054,1.18,1.688,2.814,2.021,5.602L75.516,46.649L75.516,46.649z M73.434,40.909l0.186-0.166c-1.135-1.269-2.645-1.975-5.11-2.346&#xA;&#x9;l-0.038,0.247l-0.037,0.248c2.4,0.36,3.783,1.033,4.813,2.184L73.434,40.909L73.434,40.909z M68.471,38.644l0.038-0.247&#xA;&#x9;c-2.521-0.38-5.836-0.383-10.459-0.383v0.5c4.64,0,7.91,0.005,10.384,0.377L68.471,38.644z M58.05,38.264v-0.25&#xA;&#x9;c-4.623,0-7.938,0.003-10.459,0.383l0.038,0.247l0.037,0.248c2.475-0.373,5.745-0.378,10.384-0.378V38.264z M51.392,43.703v0.25&#xA;&#x9;h13.316v-0.5H51.392V43.703z M64.708,43.703v0.25c0.83,0,1.507,0.002,2.09,0.159l0.065-0.242l0.064-0.241&#xA;&#x9;c-0.66-0.178-1.408-0.176-2.22-0.176V43.703z M66.863,43.87l-0.065,0.242c0.78,0.21,1.493,0.624,2.065,1.2l0.177-0.175l0.177-0.177&#xA;&#x9;c-0.633-0.637-1.422-1.097-2.289-1.331L66.863,43.87z M69.04,45.137l-0.177,0.176c0.572,0.578,0.984,1.295,1.193,2.081l0.241-0.064&#xA;&#x9;l0.241-0.065c-0.231-0.871-0.688-1.666-1.322-2.305l-0.177,0.176V45.137z M70.298,47.33l-0.241,0.064&#xA;&#x9;c0.158,0.593,0.159,1.271,0.157,2.11l0.25,0.002h0.25c0.002-0.822,0.004-1.572-0.175-2.24L70.298,47.33z M70.464,49.505h-0.25v0.364&#xA;&#x9;h0.5v-0.364H70.464z M70.464,49.869h-0.25c0,0.836-0.002,1.518-0.157,2.107l0.241,0.064l0.242,0.064&#xA;&#x9;c0.176-0.664,0.174-1.418,0.174-2.235H70.464z M70.298,52.04l-0.241-0.064c-0.209,0.786-0.62,1.504-1.192,2.082l0.177,0.176&#xA;&#x9;l0.178,0.176c0.635-0.64,1.09-1.436,1.32-2.306L70.298,52.04z M69.041,54.234l-0.178-0.176c-0.569,0.575-1.281,0.99-2.063,1.202&#xA;&#x9;l0.065,0.242l0.064,0.241c0.867-0.235,1.657-0.695,2.289-1.333L69.041,54.234L69.041,54.234z M66.865,55.502L66.8,55.26&#xA;&#x9;c-0.588,0.16-1.26,0.161-2.093,0.16v0.25l-0.001,0.25c0.815,0.001,1.56,0.003,2.224-0.177L66.865,55.502z M64.706,55.669v-0.25&#xA;&#x9;H51.394v0.5h13.312V55.669z M51.394,55.669v-0.25c-0.83,0-1.506-0.002-2.09-0.159l-0.065,0.242l-0.065,0.241&#xA;&#x9;c0.66,0.178,1.409,0.176,2.22,0.176V55.669L51.394,55.669z M49.239,55.502l0.065-0.242c-0.782-0.211-1.495-0.625-2.065-1.2&#xA;&#x9;l-0.177,0.176l-0.177,0.176c0.633,0.638,1.423,1.097,2.29,1.331L49.239,55.502L49.239,55.502z M47.062,54.236l0.177-0.176&#xA;&#x9;c-0.573-0.578-0.984-1.296-1.193-2.082l-0.242,0.064l-0.241,0.065c0.232,0.871,0.688,1.666,1.322,2.305L47.062,54.236L47.062,54.236&#xA;&#x9;z M45.804,52.042l0.242-0.064c-0.158-0.593-0.158-1.27-0.158-2.111h-0.5c0,0.82-0.004,1.57,0.175,2.24L45.804,52.042z&#xA;&#x9; M45.638,49.867h0.25v-0.364h-0.5v0.364H45.638z M45.638,49.503h0.25c0-0.836,0.002-1.518,0.158-2.107l-0.242-0.064l-0.241-0.064&#xA;&#x9;c-0.177,0.664-0.175,1.418-0.175,2.235H45.638z M45.804,47.332l0.242,0.064c0.21-0.788,0.62-1.506,1.192-2.082l-0.177-0.176&#xA;&#x9;l-0.178-0.176c-0.634,0.64-1.089,1.435-1.32,2.306L45.804,47.332L45.804,47.332z M47.061,45.138l0.177,0.176&#xA;&#x9;c0.57-0.576,1.282-0.99,2.064-1.202l-0.065-0.242l-0.065-0.241c-0.867,0.235-1.657,0.695-2.289,1.333L47.061,45.138z M49.237,43.87&#xA;&#x9;l0.066,0.242c0.587-0.16,1.258-0.16,2.093-0.16v-0.5c-0.815,0-1.56-0.003-2.224,0.177L49.237,43.87z M51.573,46.966v-0.25&#xA;&#x9;c-0.553,0-0.894,0.004-1.117,0.013c-0.152,0-0.303,0.018-0.45,0.053l0.069,0.241l0.068,0.24c0.047-0.013,0.12-0.026,0.333-0.035&#xA;&#x9;c0.366-0.01,0.731-0.015,1.097-0.012V46.966z M50.075,47.023l-0.066-0.241c-0.317,0.085-0.605,0.253-0.837,0.487l0.177,0.176&#xA;&#x9;l0.178,0.176c0.17-0.171,0.381-0.294,0.613-0.357L50.075,47.023L50.075,47.023z M49.349,47.445l-0.177-0.176&#xA;&#x9;c-0.232,0.234-0.398,0.524-0.483,0.843l0.242,0.064l0.241,0.064c0.063-0.234,0.185-0.448,0.355-0.619L49.349,47.445z M48.931,48.176&#xA;&#x9;l-0.241-0.067c-0.036,0.147-0.054,0.298-0.054,0.45c-0.008,0.225-0.012,0.569-0.012,1.127h0.5c0-0.56,0.004-0.894,0.012-1.106&#xA;&#x9;c0.008-0.214,0.022-0.288,0.035-0.337L48.931,48.176z M48.874,49.686h-0.25c0,0.558,0.004,0.901,0.012,1.126&#xA;&#x9;c0.01,0.223,0.024,0.345,0.054,0.451l0.24-0.067l0.241-0.067c-0.024-0.11-0.036-0.224-0.035-0.337&#xA;&#x9;c-0.011-0.369-0.015-0.737-0.012-1.106H48.874L48.874,49.686z M48.93,51.196l-0.241,0.064c0.085,0.319,0.251,0.61,0.483,0.843&#xA;&#x9;l0.177-0.176l0.178-0.176c-0.17-0.172-0.293-0.386-0.355-0.62L48.93,51.196L48.93,51.196z M49.35,51.926l-0.178,0.177&#xA;&#x9;c0.232,0.234,0.52,0.402,0.838,0.487l0.065-0.24l0.065-0.242c-0.232-0.063-0.444-0.186-0.613-0.357L49.35,51.926L49.35,51.926z&#xA;&#x9; M50.075,52.349l-0.069,0.24c0.106,0.03,0.228,0.046,0.45,0.055c0.222,0.009,0.563,0.012,1.117,0.012v-0.5&#xA;&#x9;c-0.555,0-0.887-0.004-1.098-0.012c-0.112,0.001-0.223-0.011-0.332-0.035L50.075,52.349z M51.573,52.406v0.25h12.954v-0.5H51.573&#xA;&#x9;V52.406z M64.527,52.406v0.25c0.553,0,0.894-0.003,1.117-0.012c0.221-0.01,0.342-0.024,0.449-0.054l-0.068-0.24l-0.068-0.241&#xA;&#x9;c-0.047,0.013-0.12,0.026-0.333,0.035c-0.366,0.01-0.731,0.014-1.097,0.012V52.406L64.527,52.406z M66.025,52.349l0.065,0.241&#xA;&#x9;c0.317-0.085,0.604-0.253,0.837-0.487l-0.177-0.176l-0.178-0.176c-0.171,0.171-0.382,0.294-0.613,0.357L66.025,52.349z&#xA;&#x9; M66.751,51.927l0.177,0.176c0.232-0.233,0.398-0.524,0.483-0.843l-0.242-0.064l-0.241-0.064c-0.063,0.234-0.185,0.447-0.354,0.619&#xA;&#x9;L66.751,51.927z M67.169,51.196l0.241,0.067c0.029-0.106,0.045-0.228,0.054-0.45c0.009-0.225,0.013-0.568,0.013-1.127h-0.5&#xA;&#x9;c0,0.56-0.004,0.894-0.013,1.107c0.001,0.113-0.011,0.226-0.034,0.336L67.169,51.196L67.169,51.196z M67.227,49.686h0.25&#xA;&#x9;c0.002-0.375-0.002-0.75-0.013-1.125c0-0.152-0.019-0.304-0.054-0.452l-0.24,0.067l-0.24,0.067c0.012,0.049,0.025,0.123,0.034,0.337&#xA;&#x9;c0.009,0.213,0.013,0.547,0.013,1.106H67.227L67.227,49.686z M67.17,48.176l0.241-0.064c-0.085-0.318-0.251-0.609-0.483-0.843&#xA;&#x9;l-0.177,0.176l-0.178,0.176c0.17,0.171,0.293,0.385,0.354,0.62L67.17,48.176L67.17,48.176z M66.75,47.446l0.178-0.177&#xA;&#x9;c-0.23-0.233-0.52-0.401-0.837-0.487l-0.065,0.241l-0.065,0.241c0.231,0.063,0.442,0.186,0.613,0.357L66.75,47.446L66.75,47.446z&#xA;&#x9; M66.025,47.023l0.068-0.24c-0.146-0.036-0.299-0.054-0.449-0.054c-0.373-0.011-0.745-0.015-1.117-0.013v0.5&#xA;&#x9;c0.555,0,0.887,0.004,1.098,0.012c0.212,0.009,0.285,0.022,0.332,0.035L66.025,47.023L66.025,47.023z M64.527,46.966v-0.25H51.573&#xA;&#x9;v0.5h12.954V46.966z"></path>
<path fill="#FFFFFF" stroke="#F9F9F9" stroke-width="0.25" d="M49.63,68.26c0.527,0,1.032,0.213,1.4,0.59&#xA;&#x9;c0.37,0.379,0.58,0.893,0.58,1.428c0,0.537-0.21,1.051-0.58,1.43c-0.372,0.378-0.875,0.59-1.4,0.59&#xA;&#x9;c-0.526-0.001-1.031-0.213-1.399-0.59c-0.373-0.383-0.581-0.895-0.58-1.43c0-0.535,0.209-1.049,0.58-1.428&#xA;&#x9;C48.603,68.471,49.107,68.259,49.63,68.26L49.63,68.26z M58.05,68.26c0.527,0,1.032,0.213,1.4,0.59&#xA;&#x9;c0.37,0.379,0.579,0.893,0.579,1.428c0,0.537-0.209,1.051-0.579,1.43c-0.372,0.378-0.875,0.59-1.4,0.59&#xA;&#x9;c-0.526-0.001-1.031-0.213-1.399-0.59c-0.373-0.383-0.581-0.895-0.58-1.43c0-0.535,0.209-1.049,0.58-1.428&#xA;&#x9;C57.023,68.471,57.527,68.259,58.05,68.26L58.05,68.26z M66.471,68.26c0.524,0,1.028,0.211,1.399,0.59&#xA;&#x9;c0.372,0.379,0.58,0.893,0.58,1.428c0.001,0.535-0.208,1.047-0.58,1.43c-0.371,0.378-0.875,0.59-1.399,0.59&#xA;&#x9;c-0.527-0.001-1.031-0.213-1.4-0.59c-0.372-0.383-0.58-0.895-0.579-1.43c0-0.535,0.209-1.049,0.579-1.428&#xA;&#x9;C65.443,68.471,65.947,68.259,66.471,68.26L66.471,68.26z M49.63,59.684c0.527,0,1.032,0.213,1.4,0.59&#xA;&#x9;c0.37,0.379,0.58,0.893,0.58,1.429s-0.21,1.05-0.58,1.429c-0.368,0.377-0.873,0.59-1.4,0.59c-0.526,0-1.031-0.213-1.399-0.59&#xA;&#x9;c-0.373-0.383-0.582-0.896-0.58-1.43c0-0.535,0.209-1.049,0.58-1.428C48.603,59.896,49.106,59.684,49.63,59.684L49.63,59.684z&#xA;&#x9; M58.05,59.684c0.527,0,1.032,0.213,1.4,0.59c0.37,0.379,0.579,0.893,0.579,1.429s-0.209,1.05-0.579,1.429&#xA;&#x9;c-0.369,0.377-0.873,0.59-1.4,0.59c-0.526,0-1.031-0.213-1.399-0.59c-0.373-0.383-0.581-0.896-0.58-1.43&#xA;&#x9;c0-0.535,0.209-1.049,0.58-1.428C57.023,59.896,57.526,59.684,58.05,59.684L58.05,59.684z M66.471,59.684&#xA;&#x9;c0.524,0,1.028,0.213,1.399,0.59c0.371,0.379,0.58,0.893,0.58,1.429c0.001,0.534-0.208,1.047-0.58,1.429&#xA;&#x9;c-0.371,0.378-0.875,0.59-1.399,0.59c-0.527,0-1.031-0.213-1.4-0.59c-0.373-0.383-0.58-0.896-0.579-1.43&#xA;&#x9;c0-0.535,0.209-1.049,0.579-1.428C65.443,59.896,65.945,59.684,66.471,59.684L66.471,59.684z"></path>
</svg>