<?xml version="1.0"?>


<svg version="1.1" id="Layer_1" xmlns="http://www.w3.org/2000/svg" xmlns:xlink="http://www.w3.org/1999/xlink" x="0px" y="0px" width="77px" height="77px" viewBox="0 0 77 77" enable-background="new 0 0 77 77" xml:space="preserve">
<circle fill="#E4AD25" cx="38.5" cy="38.5" r="38.5"></circle>
<path fill="#F9F9F9" d="M34.619,34.475h-5.175c-0.635,0-1.15-0.515-1.15-1.15l0,0V28.15c0-0.635,0.516-1.149,1.151-1.149&#xA;&#x9;c0.634,0,1.148,0.515,1.149,1.149v4.025h4.025c0.635,0,1.149,0.516,1.149,1.151C35.768,33.96,35.253,34.475,34.619,34.475z"></path>
<path fill="#F9F9F9" d="M48.85,39.65c-0.635,0-1.149-0.516-1.149-1.15l0,0c0.001-5.078-4.116-9.196-9.194-9.196&#xA;&#x9;c-3.286,0-6.322,1.752-7.964,4.597c-0.331,0.542-1.039,0.714-1.581,0.383c-0.525-0.32-0.705-0.996-0.41-1.535&#xA;&#x9;c3.174-5.498,10.204-7.381,15.701-4.207c3.558,2.054,5.749,5.85,5.747,9.958C50,39.135,49.485,39.65,48.85,39.65L48.85,39.65z&#xA;&#x9; M47.557,50c-0.636,0-1.15-0.515-1.15-1.15l0,0v-4.024h-4.025c-0.635-0.001-1.149-0.517-1.148-1.151&#xA;&#x9;c0-0.635,0.514-1.148,1.148-1.148h5.176c0.635,0,1.149,0.515,1.149,1.149l0,0v5.175C48.706,49.485,48.191,50,47.557,50L47.557,50z"></path>
<path fill="#F9F9F9" d="M38.5,50c-6.349-0.006-11.494-5.151-11.5-11.5c0-0.635,0.516-1.149,1.151-1.149&#xA;&#x9;c0.634,0,1.148,0.515,1.149,1.149c-0.002,5.078,4.111,9.196,9.189,9.199c3.289,0.002,6.327-1.752,7.969-4.6&#xA;&#x9;c0.331-0.543,1.038-0.715,1.581-0.384c0.524,0.32,0.705,0.996,0.409,1.535C46.391,47.801,42.603,49.99,38.5,50L38.5,50z"></path>
</svg>