<?xml version="1.0"?>


<svg version="1.1" id="Layer_1" xmlns="http://www.w3.org/2000/svg" xmlns:xlink="http://www.w3.org/1999/xlink" x="0px" y="0px" width="11px" height="8px" viewBox="0 0 11 8" enable-background="new 0 0 11 8" xml:space="preserve">
<path fill="#090909" d="M6.424,7.87C6.337,7.789,6.287,7.676,6.286,7.557c0-0.117,0.05-0.229,0.138-0.313L9.391,4.45H0.471&#xA;&#x9;c-0.124,0-0.243-0.046-0.333-0.13C0.051,4.239,0,4.125,0,4.006c0-0.118,0.05-0.23,0.138-0.314c0.09-0.084,0.209-0.13,0.333-0.13&#xA;&#x9;h8.919L6.424,0.769c-0.092-0.081-0.146-0.195-0.15-0.317C6.271,0.33,6.321,0.212,6.412,0.13C6.504,0.043,6.627-0.004,6.754,0&#xA;&#x9;C6.881,0.002,7,0.053,7.091,0.141l3.771,3.551C10.949,3.773,11,3.887,11,4.006c0,0.117-0.05,0.23-0.139,0.313L7.091,7.87&#xA;&#x9;C7,7.954,6.881,8,6.757,8C6.634,8,6.515,7.954,6.424,7.87z"></path>
</svg>