<svg width="11" height="8" viewBox="0 0 11 8" fill="none" xmlns="http://www.w3.org/2000/svg">
    <path fill-rule="evenodd" clip-rule="evenodd" d="M6.424 7.87a.431.431 0 0 1-.138-.313c0-.118.05-.23.138-.314L9.391 4.45H.471a.487.487 0 0 1-.333-.13A.431.431 0 0 1 0 4.006c0-.118.05-.23.138-.314a.487.487 0 0 1 .333-.13h8.92L6.424.769a.445.445 0 0 1-.15-.317.421.421 0 0 1 .138-.322.475.475 0 0 1 .342-.13.496.496 0 0 1 .337.141l3.771 3.551a.431.431 0 0 1 .138.314c0 .117-.05.23-.138.313L7.091 7.87a.487.487 0 0 1-.334.13.487.487 0 0 1-.333-.13z" fill="#E4AD25"></path>
</svg>