<svg width="87" height="15" viewBox="0 0 87 15" fill="none" xmlns="http://www.w3.org/2000/svg">
    <path d="m2.747 14.364 1.167-5.31L0 5.48l5.171-.472L7.182 0l2.011 5.009 5.171.472-3.914 3.572 1.167 5.311-4.435-2.816-4.435 2.816zM21.117 14.364l1.167-5.31L18.37 5.48l5.171-.472L25.552 0l2.011 5.009 5.171.472-3.914 3.572 1.167 5.311-4.435-2.816-4.435 2.816zM39.326 14.364l1.098-5.31L36.74 5.48l4.867-.472L43.5 0l1.893 5.009 4.867.472-3.684 3.572 1.098 5.311-4.174-2.816-4.174 2.816zM57.013 14.364l1.167-5.31-3.914-3.573 5.17-.472L61.449 0l2.01 5.009 5.172.472-3.914 3.572 1.167 5.311-4.435-2.816-4.435 2.816zM75.383 14.364l1.167-5.31-3.914-3.573 5.17-.472L79.819 0l2.01 5.009L87 5.48l-3.914 3.572 1.167 5.311-4.435-2.816-4.435 2.816z" fill="#E4AD25"></path>
</svg>