<?xml version="1.0"?>


<svg version="1.1" id="Layer_1" xmlns="http://www.w3.org/2000/svg" xmlns:xlink="http://www.w3.org/1999/xlink" x="0px" y="0px" width="33px" height="33px" viewBox="0 0 33 33" enable-background="new 0 0 33 33" xml:space="preserve">
<circle fill="#E4AE26" cx="16.5" cy="16.5" r="16.494"></circle>
<path fill="#FFFFFF" d="M16.499,10.423c0.668,0,1.354,0.017,2.018,0.044l0.784,0.037l0.751,0.043l0.703,0.046l0.643,0.049&#xA;&#x9;c0.693,0.05,1.348,0.338,1.853,0.816c0.499,0.476,0.81,1.107,0.877,1.784l0.03,0.323l0.06,0.691&#xA;&#x9;c0.056,0.716,0.095,1.497,0.095,2.244s-0.039,1.527-0.095,2.244l-0.06,0.691l-0.03,0.322c-0.069,0.681-0.381,1.314-0.878,1.784&#xA;&#x9;c-0.504,0.478-1.159,0.767-1.852,0.815l-0.642,0.049l-0.703,0.047l-0.752,0.043l-0.784,0.037c-0.672,0.027-1.345,0.043-2.018,0.043&#xA;&#x9;s-1.346-0.016-2.018-0.043l-0.785-0.037l-0.75-0.043l-0.703-0.047l-0.643-0.049c-0.693-0.049-1.348-0.338-1.852-0.815&#xA;&#x9;c-0.497-0.47-0.809-1.104-0.878-1.784L8.84,19.436l-0.06-0.691c-0.059-0.747-0.09-1.495-0.094-2.244&#xA;&#x9;c0-0.747,0.041-1.528,0.094-2.244l0.06-0.691l0.031-0.323c0.069-0.68,0.38-1.313,0.877-1.784c0.505-0.478,1.159-0.766,1.853-0.816&#xA;&#x9;l0.641-0.049l0.703-0.046l0.752-0.043l0.785-0.037C15.153,10.438,15.826,10.424,16.499,10.423L16.499,10.423z M16.499,11.943&#xA;&#x9;c-0.645,0-1.309,0.016-1.953,0.042l-0.764,0.036l-0.734,0.041l-0.689,0.046l-0.631,0.048c-0.33,0.021-0.642,0.157-0.883,0.384&#xA;&#x9;c-0.237,0.223-0.387,0.524-0.419,0.849c-0.108,1.034-0.167,2.071-0.177,3.11c0,1.05,0.086,2.194,0.177,3.112&#xA;&#x9;c0.065,0.662,0.606,1.178,1.302,1.232l0.631,0.047l0.689,0.047l0.734,0.041l0.764,0.036c0.65,0.027,1.302,0.042,1.953,0.043&#xA;&#x9;c0.645,0,1.309-0.017,1.954-0.043l0.764-0.036l0.733-0.041l0.688-0.046l0.632-0.048c0.332-0.021,0.646-0.158,0.883-0.384&#xA;&#x9;c0.238-0.226,0.388-0.527,0.418-0.849c0.093-0.918,0.179-2.062,0.179-3.111c0-1.05-0.086-2.193-0.179-3.111&#xA;&#x9;c-0.031-0.324-0.18-0.625-0.418-0.849c-0.24-0.227-0.553-0.363-0.883-0.384l-0.632-0.047l-0.688-0.046l-0.733-0.043l-0.764-0.035&#xA;&#x9;C17.802,11.958,17.15,11.943,16.499,11.943L16.499,11.943z M14.937,14.658c0.001-0.152,0.078-0.293,0.205-0.377&#xA;&#x9;c0.128-0.085,0.29-0.103,0.434-0.048l0.064,0.03l3.281,1.842c0.201,0.112,0.287,0.357,0.199,0.57&#xA;&#x9;c-0.029,0.068-0.074,0.127-0.133,0.174l-0.066,0.046l-3.281,1.841c-0.206,0.117-0.467,0.064-0.611-0.123&#xA;&#x9;c-0.046-0.06-0.076-0.129-0.088-0.203l-0.004-0.068V14.658L14.937,14.658z"></path>
</svg>