<svg width="77" height="77" viewBox="0 0 77 77" fill="none" xmlns="http://www.w3.org/2000/svg">
    <circle cx="38.5" cy="38.5" r="38.5" fill="#F9F9F9"></circle>
    <path d="M34.619 34.475h-5.175a1.15 1.15 0 0 1-1.15-1.15V28.15a1.15 1.15 0 0 1 2.3 0v4.025h4.025a1.15 1.15 0 0 1 0 2.3z" fill="#E4AD25"></path>
    <path d="M48.85 39.65a1.15 1.15 0 0 1-1.15-1.15 9.195 9.195 0 0 0-17.158-4.599 1.15 1.15 0 0 1-1.99-1.152A11.494 11.494 0 0 1 50 38.5a1.15 1.15 0 0 1-1.15 1.15zM47.556 50a1.15 1.15 0 0 1-1.15-1.15v-4.025h-4.025a1.15 1.15 0 0 1 0-2.3h5.175a1.15 1.15 0 0 1 1.15 1.15v5.175a1.15 1.15 0 0 1-1.15 1.15z" fill="#E4AD25"></path>
    <path d="M38.5 50A11.511 11.511 0 0 1 27 38.5a1.15 1.15 0 0 1 2.3 0 9.194 9.194 0 0 0 17.158 4.599 1.15 1.15 0 0 1 1.99 1.152 11.535 11.535 0 0 1-9.948 5.75z" fill="#E4AD25"></path>
</svg>