<svg width="118" height="118" viewBox="0 0 118 118" fill="none" xmlns="http://www.w3.org/2000/svg">
    <circle cx="59" cy="59" r="59" fill="#E4AD25"></circle>
    <path d="M36.479 38.27a1.336 1.336 0 0 0-2.106.748 1.363 1.363 0 0 0 .495 1.42l5.374 4.067a1.338 1.338 0 0 0 1.49.082 1.347 1.347 0 0 0 .615-.829 1.367 1.367 0 0 0-.495-1.42l-5.373-4.067zm-2.137 13.277c-.356 0-.697.143-.949.397a1.36 1.36 0 0 0 0 1.914c.252.255.593.397.95.397h4.025c.356 0 .698-.143.95-.397a1.36 1.36 0 0 0 0-1.914 1.336 1.336 0 0 0-.95-.397h-4.026zm24.153-13.542c8.452 0 15.418 6.322 16.062 14.503l.037.601.011.61-.002 9.739 2.483 6.018c.06.146.108.297.142.452l.043.233.021.355a2.724 2.724 0 0 1-.565 1.649 2.683 2.683 0 0 1-1.445.959l-.312.073-.362.027H65.21l-.013.433a6.796 6.796 0 0 1-2.104 4.509A6.678 6.678 0 0 1 58.5 80a6.678 6.678 0 0 1-4.593-1.834 6.796 6.796 0 0 1-2.104-4.509l-.014-.433h-9.397c-.236 0-.469-.03-.698-.092l-.333-.117a2.692 2.692 0 0 1-1.286-1.148 2.73 2.73 0 0 1-.332-1.7l.056-.345.115-.346 2.478-6.013.003-9.769.01-.606c.33-8.447 7.428-15.083 16.09-15.083zm4.031 35.219h-8.052l.019.382c.09.938.5 1.815 1.16 2.48.662.667 1.531 1.08 2.46 1.17l.387.02c1 0 1.966-.377 2.707-1.056a4.076 4.076 0 0 0 1.3-2.617l.02-.379zm-4.031-32.51c-7.041 0-12.804 5.208-13.368 11.876l-.037.574-.011.555v10.015l-.102.52-2.585 6.262 32.098.005.12-.005-2.587-6.262-.102-.52v-9.988l-.01-.553c-.282-6.97-6.177-12.48-13.416-12.48zM82.4 38.542a1.333 1.333 0 0 0-1.879-.27l-5.374 4.067a1.363 1.363 0 0 0-.268 1.896 1.333 1.333 0 0 0 1.879.27l5.374-4.067a1.363 1.363 0 0 0 .268-1.896zM84 52.9c0-.36-.141-.704-.393-.958a1.336 1.336 0 0 0-.95-.396h-4.025c-.356 0-.698.143-.95.397a1.36 1.36 0 0 0 0 1.914c.252.255.594.397.95.397h4.026c.356 0 .697-.143.949-.397a1.36 1.36 0 0 0 .393-.957z" fill="#F2F2F2"></path>
</svg>