<svg width="77" height="77" viewBox="0 0 77 77" fill="none" xmlns="http://www.w3.org/2000/svg">
    <circle cx="38.5" cy="38.5" r="38.5" fill="#F9F9F9"></circle>
    <path d="M48 40.563a4.801 4.801 0 0 1 4.8 4.8V48.8h-2.327v-3.437A2.474 2.474 0 0 0 48 42.891h-4.346v-2.328H48zm-20 0h7.273a4.802 4.802 0 0 1 4.8 4.8V48.8h-2.328v-3.437a2.474 2.474 0 0 0-2.472-2.472H28a2.474 2.474 0 0 0-2.473 2.472V48.8H23.2v-3.437a4.8 4.8 0 0 1 4.8-4.8zM31.637 29.2a4.346 4.346 0 1 1 0 8.691 4.346 4.346 0 0 1 0-8.69zm12.726 0a4.346 4.346 0 1 1 .001 8.692 4.346 4.346 0 0 1 0-8.692zm-12.726 2.327a2.02 2.02 0 0 0-1.428 3.446 2.02 2.02 0 0 0 3.445-1.427 2.019 2.019 0 0 0-2.017-2.019zm12.726 0a2.018 2.018 0 1 0 0 4.037 2.018 2.018 0 0 0 0-4.037z" fill="#E4AD25" stroke="#FFFBF4" stroke-width=".4"></path>
</svg>