<svg width="77" height="77" viewBox="0 0 77 77" fill="none" xmlns="http://www.w3.org/2000/svg">
    <circle cx="38.5" cy="38.5" r="38.5" fill="#F9F9F9"></circle>
    <path d="m26 51 1.797-6.687a12.28 12.28 0 0 1-1.553-5.966C26.244 31.54 31.797 26 38.623 26 45.448 26 51 31.539 51 38.347c0 6.81-5.552 12.348-12.378 12.348-2.048 0-4.072-.517-5.883-1.496L26 51zm7.074-4.307.424.252a10.035 10.035 0 0 0 5.124 1.415c5.536 0 10.039-4.492 10.039-10.014 0-5.522-4.505-10.012-10.039-10.012s-10.038 4.491-10.038 10.013c0 1.824.508 3.62 1.468 5.192l.26.426-1.004 3.735 3.764-1.007h.002z" fill="#E4AD25"></path>
    <path fill-rule="evenodd" clip-rule="evenodd" d="M43.227 40.064c-.51-.304-1.172-.644-1.773-.399-.46.188-.754.907-1.053 1.274-.153.189-.336.217-.57.124-1.73-.688-3.054-1.839-4.008-3.424-.161-.247-.132-.441.062-.67.288-.339.65-.722.727-1.178.078-.456-.136-.99-.325-1.395-.242-.52-.512-1.26-1.032-1.553-.48-.27-1.11-.118-1.537.229-.737.598-1.093 1.535-1.082 2.465.003.264.036.528.098.782.15.613.432 1.186.753 1.73.24.411.503.809.785 1.192a12.12 12.12 0 0 0 3.406 3.155 10.39 10.39 0 0 0 2.125 1.008c.832.274 1.574.56 2.472.39.94-.178 1.87-.76 2.243-1.664.11-.268.166-.566.103-.85-.127-.585-.92-.932-1.396-1.216h.002z" fill="#E4AD25"></path>
</svg>