<?xml version="1.0"?>


<svg version="1.1" id="Layer_1" xmlns="http://www.w3.org/2000/svg" xmlns:xlink="http://www.w3.org/1999/xlink" x="0px" y="0px" width="118px" height="118px" viewBox="0 0 118 118" enable-background="new 0 0 118 118" xml:space="preserve">
<circle fill="#F9F9F9" cx="59" cy="59" r="59"></circle>
<path fill="#E4AD25" d="M36.479,38.27c-0.587-0.446-1.426-0.332-1.872,0.256c-0.111,0.146-0.19,0.313-0.234,0.492&#xA;&#x9;c-0.135,0.53,0.06,1.089,0.495,1.42l5.374,4.067c0.434,0.328,1.022,0.36,1.49,0.082c0.307-0.184,0.528-0.482,0.615-0.829&#xA;&#x9;c0.133-0.529-0.061-1.088-0.495-1.42L36.479,38.27L36.479,38.27z M34.342,51.547c-0.356,0-0.697,0.143-0.949,0.397&#xA;&#x9;c-0.525,0.53-0.525,1.384,0,1.914c0.252,0.255,0.593,0.397,0.95,0.397h4.025c0.356,0,0.698-0.143,0.95-0.397&#xA;&#x9;c0.525-0.53,0.525-1.384,0-1.914c-0.251-0.254-0.593-0.397-0.95-0.397H34.342z M58.495,38.005c8.452,0,15.418,6.322,16.062,14.503&#xA;&#x9;l0.037,0.601l0.012,0.61l-0.002,9.739l2.482,6.019c0.061,0.146,0.107,0.297,0.143,0.451l0.043,0.233l0.021,0.354&#xA;&#x9;c-0.003,0.598-0.201,1.176-0.565,1.649c-0.361,0.471-0.87,0.808-1.444,0.959l-0.312,0.073l-0.363,0.027H65.21l-0.013,0.433&#xA;&#x9;c-0.106,1.715-0.858,3.325-2.104,4.509C61.854,79.343,60.209,79.999,58.5,80c-1.709-0.001-3.353-0.657-4.593-1.834&#xA;&#x9;c-1.246-1.184-1.998-2.794-2.104-4.509l-0.014-0.433h-9.397c-0.236,0-0.469-0.031-0.698-0.093l-0.333-0.116&#xA;&#x9;c-0.543-0.232-0.995-0.635-1.286-1.148c-0.292-0.516-0.409-1.112-0.332-1.7l0.056-0.345l0.115-0.346l2.478-6.014l0.003-9.769&#xA;&#x9;l0.01-0.606C42.735,44.641,49.833,38.005,58.495,38.005z M62.525,73.225h-8.051l0.019,0.381c0.09,0.938,0.5,1.815,1.16,2.48&#xA;&#x9;c0.662,0.667,1.531,1.08,2.46,1.17l0.387,0.02c1,0,1.966-0.377,2.707-1.055c0.742-0.683,1.205-1.615,1.3-2.617l0.021-0.379H62.525z&#xA;&#x9; M58.495,40.714c-7.041,0-12.804,5.208-13.368,11.876l-0.037,0.574l-0.011,0.555v10.016l-0.102,0.52l-2.585,6.262l32.098,0.006&#xA;&#x9;l0.119-0.006l-2.586-6.262l-0.103-0.52v-9.988l-0.01-0.553C71.629,46.223,65.734,40.713,58.495,40.714L58.495,40.714z M82.4,38.542&#xA;&#x9;c-0.438-0.592-1.271-0.718-1.864-0.281c-0.005,0.004-0.011,0.007-0.015,0.011l-5.375,4.067c-0.592,0.452-0.712,1.297-0.268,1.896&#xA;&#x9;c0.438,0.592,1.271,0.718,1.864,0.281c0.005-0.003,0.01-0.007,0.015-0.011l5.374-4.067C82.725,39.986,82.844,39.141,82.4,38.542z&#xA;&#x9; M84,52.9c0-0.36-0.141-0.704-0.393-0.958c-0.252-0.253-0.594-0.396-0.95-0.396h-4.025c-0.356,0-0.698,0.143-0.95,0.397&#xA;&#x9;c-0.524,0.53-0.524,1.384,0,1.914c0.252,0.255,0.594,0.397,0.95,0.397h4.026c0.355,0,0.697-0.143,0.949-0.397&#xA;&#x9;C83.859,53.602,84,53.258,84,52.9z"></path>
</svg>