<?xml version="1.0"?>


<svg version="1.1" id="Layer_1" xmlns="http://www.w3.org/2000/svg" xmlns:xlink="http://www.w3.org/1999/xlink" x="0px" y="0px" width="33px" height="33px" viewBox="0 0 33 33" enable-background="new 0 0 33 33" xml:space="preserve">
<circle fill="#E4AE26" cx="16.5" cy="16.5" r="16.494"></circle>
<path fill="#FFFFFF" d="M13.023,9.596c0.787-0.035,1.037-0.042,3.042-0.042c2.004,0,2.256,0.008,3.041,0.042&#xA;&#x9;c0.787,0.033,1.323,0.151,1.793,0.322c0.492,0.175,0.938,0.448,1.308,0.802c0.375,0.347,0.665,0.766,0.85,1.23&#xA;&#x9;c0.183,0.441,0.308,0.946,0.345,1.685c0.035,0.742,0.043,0.978,0.043,2.864c0,1.887-0.008,2.123-0.043,2.862&#xA;&#x9;c-0.037,0.74-0.162,1.244-0.345,1.687c-0.188,0.468-0.479,0.888-0.85,1.229c-0.374,0.357-0.819,0.63-1.308,0.802&#xA;&#x9;c-0.47,0.172-1.006,0.29-1.791,0.323c-0.787,0.033-1.039,0.041-3.043,0.041c-2.004,0-2.255-0.008-3.042-0.041&#xA;&#x9;c-0.785-0.033-1.322-0.151-1.791-0.323c-0.488-0.171-0.934-0.444-1.308-0.8c-0.372-0.342-0.662-0.762-0.851-1.23&#xA;&#x9;c-0.182-0.441-0.307-0.947-0.343-1.686c-0.036-0.742-0.044-0.979-0.044-2.864c0-1.887,0.008-2.123,0.044-2.863&#xA;&#x9;c0.036-0.74,0.161-1.245,0.343-1.687c0.185-0.463,0.476-0.883,0.852-1.23c0.374-0.356,0.819-0.629,1.306-0.8&#xA;&#x9;C11.701,9.747,12.238,9.629,13.023,9.596z M19.047,10.846c-0.779-0.034-1.012-0.04-2.982-0.04c-1.97,0-2.204,0.006-2.981,0.04&#xA;&#x9;c-0.72,0.03-1.11,0.144-1.37,0.239c-0.345,0.126-0.59,0.276-0.85,0.519c-0.242,0.221-0.43,0.494-0.55,0.799&#xA;&#x9;c-0.102,0.245-0.222,0.612-0.255,1.29c-0.035,0.732-0.043,0.952-0.043,2.806c0,1.854,0.008,2.073,0.043,2.806&#xA;&#x9;c0.033,0.678,0.153,1.045,0.255,1.29c0.117,0.302,0.306,0.575,0.55,0.8c0.239,0.229,0.53,0.407,0.85,0.519&#xA;&#x9;c0.26,0.095,0.65,0.208,1.37,0.239c0.778,0.033,1.01,0.041,2.981,0.041c1.971,0,2.203-0.008,2.982-0.041&#xA;&#x9;c0.72-0.031,1.109-0.145,1.37-0.239c0.317-0.109,0.606-0.286,0.849-0.519c0.242-0.222,0.431-0.494,0.551-0.8&#xA;&#x9;c0.103-0.245,0.223-0.612,0.256-1.29c0.035-0.732,0.041-0.951,0.041-2.806c0-1.854-0.006-2.074-0.043-2.806&#xA;&#x9;c-0.031-0.678-0.151-1.045-0.254-1.29c-0.119-0.305-0.309-0.579-0.551-0.8c-0.242-0.232-0.531-0.409-0.849-0.518&#xA;&#x9;C20.156,10.99,19.768,10.877,19.047,10.846L19.047,10.846z M15.122,18.64c0.529,0.207,1.112,0.234,1.659,0.079&#xA;&#x9;c0.537-0.149,1.008-0.478,1.334-0.93c0.315-0.447,0.459-0.983,0.401-1.518c-0.06-0.54-0.312-1.041-0.711-1.411&#xA;&#x9;c-0.261-0.245-0.572-0.43-0.911-0.543c-0.695-0.233-1.456-0.163-2.096,0.194c-0.308,0.173-0.575,0.412-0.78,0.7&#xA;&#x9;c-0.201,0.281-0.334,0.605-0.389,0.946c-0.053,0.341-0.026,0.686,0.08,1.014c0.105,0.328,0.286,0.63,0.53,0.883&#xA;&#x9;C14.485,18.309,14.786,18.509,15.122,18.64z M13.382,13.975c0.353-0.332,0.771-0.595,1.231-0.774c0.934-0.363,1.969-0.363,2.903,0&#xA;&#x9;c0.461,0.18,0.879,0.442,1.23,0.774c0.353,0.331,0.632,0.725,0.822,1.158c0.384,0.871,0.384,1.861,0,2.732&#xA;&#x9;c-0.189,0.433-0.47,0.826-0.821,1.158c-0.729,0.676-1.688,1.05-2.683,1.045c-0.994,0.005-1.953-0.369-2.682-1.045&#xA;&#x9;c-0.703-0.652-1.105-1.566-1.111-2.524C12.272,15.552,12.672,14.644,13.382,13.975z M20.699,13.461&#xA;&#x9;c0.086-0.077,0.156-0.17,0.205-0.274c0.15-0.319,0.074-0.7-0.187-0.937c-0.086-0.081-0.187-0.144-0.297-0.185&#xA;&#x9;c-0.226-0.086-0.476-0.083-0.699,0.01c-0.108,0.044-0.206,0.11-0.29,0.192c-0.158,0.156-0.247,0.37-0.244,0.592&#xA;&#x9;c0.004,0.223,0.098,0.434,0.262,0.585c0.168,0.157,0.391,0.245,0.621,0.247C20.301,13.695,20.525,13.613,20.699,13.461z"></path>
</svg>