<?xml version="1.0"?>


<svg version="1.1" id="Layer_1" xmlns="http://www.w3.org/2000/svg" xmlns:xlink="http://www.w3.org/1999/xlink" x="0px" y="0px" width="9px" height="12px" viewBox="0 0 9 12" enable-background="new 0 0 9 12" xml:space="preserve">
<path fill="#090909" d="M2.411,10.412h4.178c0.816,0,1.22-0.433,1.22-1.289V5.387c0-0.531-0.056-0.761-0.369-1.099L5.268,1.979&#xA;&#x9;C4.968,1.658,4.725,1.588,4.279,1.588H2.412c-0.811,0-1.221,0.437-1.221,1.293v6.242C1.191,9.983,1.601,10.412,2.411,10.412z&#xA;&#x9; M2.443,9.75c-0.407,0-0.618-0.227-0.618-0.64V2.893c0-0.408,0.211-0.642,0.622-0.642h1.747v2.391c0,0.519,0.251,0.774,0.74,0.774&#xA;&#x9;h2.243V9.11c0,0.413-0.209,0.64-0.616,0.64H2.443L2.443,9.75z M5.004,4.793c-0.154,0-0.217-0.064-0.217-0.229V2.378l2.267,2.416&#xA;&#x9;h-2.05V4.793z M5.946,6.547H2.961C2.828,6.546,2.718,6.654,2.717,6.788c0,0.003,0,0.007,0,0.011c0,0.144,0.103,0.256,0.244,0.256&#xA;&#x9;h2.985C6.014,7.056,6.077,7.028,6.122,6.98c0.045-0.049,0.07-0.114,0.068-0.182C6.196,6.664,6.09,6.55,5.953,6.547&#xA;&#x9;C5.952,6.547,5.949,6.547,5.946,6.547z M5.946,7.984H2.961c-0.142,0-0.244,0.114-0.244,0.258c0,0.141,0.103,0.248,0.244,0.248h2.985&#xA;&#x9;c0.135,0,0.244-0.105,0.244-0.237c0-0.003,0-0.007,0-0.011C6.19,8.099,6.087,7.984,5.946,7.984z"></path>
</svg>