<svg width="38" height="38" viewBox="0 0 38 38" fill="none" xmlns="http://www.w3.org/2000/svg">
    <circle cx="19" cy="19" r="19" transform="rotate(180 19 19)" fill="#E4AD25"></circle>
    <path fill-rule="evenodd" clip-rule="evenodd" d="M17.992 15.146a.492.492 0 0 1 0 .706l-3.237 3.142h9.73c.137 0 .268.053.364.146a.492.492 0 0 1 0 .707.522.522 0 0 1-.363.146h-9.731l3.237 3.142a.499.499 0 0 1 .163.357.485.485 0 0 1-.15.362.515.515 0 0 1-.373.146.528.528 0 0 1-.367-.159l-4.115-3.995a.492.492 0 0 1 0-.705l4.115-3.995a.522.522 0 0 1 .727 0z" fill="#fff"></path>
</svg>