<?xml version="1.0"?>


<svg version="1.1" id="Layer_1" xmlns="http://www.w3.org/2000/svg" xmlns:xlink="http://www.w3.org/1999/xlink" x="0px" y="0px" width="33px" height="33px" viewBox="0 0 33 33" enable-background="new 0 0 33 33" xml:space="preserve">
<circle fill="#FFFFFF" cx="16.5" cy="16.5" r="16.494"></circle>
<path fill="#E4AE26" d="M14.715,13.527h2.58v1.285c0.371-0.739,1.324-1.403,2.756-1.403c2.744,0,3.395,1.471,3.395,4.17v4.997&#xA;&#x9;h-2.776v-4.383c0-1.537-0.373-2.403-1.317-2.403c-1.312,0-1.857,0.934-1.857,2.403v4.383h-2.777v-9.049H14.715z M9.951,22.459h2.778&#xA;&#x9;v-9.05H9.951V22.459z M13.127,10.459c0,0.47-0.188,0.92-0.522,1.25c-0.7,0.692-1.827,0.693-2.526,0.001&#xA;&#x9;c-0.333-0.332-0.521-0.782-0.522-1.252c0-0.47,0.187-0.92,0.522-1.252c0.701-0.691,1.826-0.691,2.526,0&#xA;&#x9;C12.939,9.538,13.127,9.988,13.127,10.459L13.127,10.459z"></path>
</svg>