<?xml version="1.0"?>


<svg version="1.1" id="Layer_1" xmlns="http://www.w3.org/2000/svg" xmlns:xlink="http://www.w3.org/1999/xlink" x="0px" y="0px" width="33px" height="33px" viewBox="0 0 33 33" enable-background="new 0 0 33 33" xml:space="preserve">
<circle fill="#E4AE26" cx="16.5" cy="16.5" r="16.494"></circle>
<path fill="#FFFFFF" d="M9.555,23.445l0.998-3.715c-0.564-1.014-0.861-2.155-0.863-3.315c0-3.783,3.086-6.86,6.877-6.86&#xA;&#x9;c3.794,0,6.878,3.077,6.878,6.86c0,3.782-3.084,6.86-6.878,6.86c-1.141-0.002-2.264-0.287-3.268-0.83L9.555,23.445L9.555,23.445z&#xA;&#x9; M13.486,21.052l0.235,0.14c0.864,0.516,1.85,0.787,2.847,0.787c3.075,0,5.577-2.496,5.577-5.564s-2.502-5.562-5.577-5.562&#xA;&#x9;c-3.074,0-5.577,2.495-5.577,5.563c0,1.014,0.281,2.01,0.816,2.885l0.144,0.235l-0.558,2.076L13.486,21.052L13.486,21.052&#xA;&#x9;L13.486,21.052z"></path>
<path fill="#FFFFFF" d="M19.127,17.369c-0.283-0.17-0.652-0.358-0.986-0.223c-0.256,0.105-0.418,0.504-0.584,0.709&#xA;&#x9;c-0.086,0.104-0.188,0.119-0.316,0.068c-0.936-0.365-1.72-1.036-2.228-1.903c-0.088-0.137-0.072-0.245,0.034-0.372&#xA;&#x9;c0.16-0.188,0.362-0.4,0.405-0.654c0.043-0.253-0.076-0.55-0.182-0.775c-0.135-0.289-0.283-0.7-0.573-0.863&#xA;&#x9;c-0.267-0.15-0.617-0.066-0.853,0.127c-0.41,0.332-0.607,0.853-0.602,1.37c0.001,0.147,0.02,0.293,0.054,0.434&#xA;&#x9;c0.083,0.34,0.24,0.66,0.419,0.962c0.133,0.228,0.279,0.449,0.436,0.662c0.512,0.701,1.154,1.296,1.893,1.753&#xA;&#x9;c0.37,0.225,0.768,0.424,1.179,0.56c0.463,0.152,0.875,0.311,1.375,0.217c0.523-0.1,1.039-0.422,1.246-0.925&#xA;&#x9;c0.066-0.147,0.086-0.312,0.059-0.472c-0.072-0.326-0.514-0.518-0.777-0.676H19.127L19.127,17.369z"></path>
</svg>