<?xml version="1.0"?>


<svg version="1.1" id="Layer_1" xmlns="http://www.w3.org/2000/svg" xmlns:xlink="http://www.w3.org/1999/xlink" x="0px" y="0px" width="32px" height="32px" viewBox="0 0 32 32" enable-background="new 0 0 32 32" xml:space="preserve">
<path fill="#090909" d="M0,32l2.3-8.561c-1.3-2.334-1.984-4.962-1.987-7.634C0.313,7.09,7.42,0,16.157,0C24.893,0,32,7.09,32,15.805&#xA;&#x9;c0,8.714-7.107,15.804-15.843,15.804c-2.63-0.004-5.219-0.661-7.531-1.914L0,32z M9.054,26.486l0.543,0.324&#xA;&#x9;c1.984,1.182,4.25,1.808,6.56,1.811c7.085,0,12.85-5.75,12.85-12.818c0-7.068-5.767-12.815-12.851-12.815&#xA;&#x9;c-7.084,0-12.85,5.749-12.85,12.817c0,2.333,0.65,4.632,1.88,6.645l0.332,0.546l-1.284,4.779l4.818-1.289H9.054L9.054,26.486z"></path>
<path fill="#090909" d="M22.05,18.002c-0.651-0.389-1.5-0.824-2.271-0.51c-0.588,0.24-0.963,1.16-1.346,1.63&#xA;&#x9;c-0.195,0.241-0.431,0.278-0.73,0.157c-2.212-0.879-3.908-2.353-5.13-4.382c-0.206-0.315-0.169-0.564,0.08-0.856&#xA;&#x9;c0.368-0.434,0.832-0.925,0.93-1.509c0.1-0.583-0.174-1.266-0.416-1.785c-0.31-0.665-0.655-1.612-1.321-1.987&#xA;&#x9;c-0.614-0.346-1.421-0.153-1.967,0.292c-0.944,0.766-1.398,1.965-1.385,3.156c0.004,0.338,0.047,0.675,0.125,1&#xA;&#x9;c0.192,0.785,0.554,1.519,0.964,2.215c0.308,0.526,0.644,1.035,1.005,1.526c1.184,1.604,2.656,2.996,4.36,4.037&#xA;&#x9;c0.852,0.521,1.77,0.978,2.72,1.291c1.064,0.351,2.014,0.717,3.164,0.498c1.204-0.228,2.393-0.971,2.87-2.129&#xA;&#x9;c0.144-0.344,0.214-0.725,0.133-1.088C23.672,18.809,22.656,18.365,22.05,18.002L22.05,18.002z"></path>
</svg>